PathFileType	4	(X/Y/Z)	D:\TRACE\spot_10-12-23\spot_arm_body_motion_3_5-platform.trc
DataRate	CameraRate	NumFrames	NumMarkers	Units	OrigDataRate	OrigDataStartFrame	OrigNumFrames
100.00	100.00	      68	5	mm	100.00	1751	      7000
Frame#	Time	Left_Front			Right_Front			Left_Aft			Right_Aft			Post			
		X1	Y1	Z1	X2	Y2	Z2	X3	Y3	Z3	X4	Y4	Z4	X5	Y5	Z5	

1751	17.500	-801.25580	16.80111	-639.15802	771.32916	21.07754	-632.17999	-718.26099	-2.14271	498.67004	698.96503	1.04171	585.11578	-18.32482	759.34009	-945.49615	
1752	17.510	-801.29803	16.31380	-639.27307	771.36737	20.63485	-632.20416	-718.22290	-1.80121	498.60934	698.97485	1.55286	584.95361	-17.87909	758.55005	-946.31952	
1753	17.520	-801.47443	15.92703	-639.35956	771.27606	20.26558	-632.33209	-718.32263	-1.40924	498.44446	698.93188	1.90444	584.78040	-18.25507	757.91815	-947.05878	
1754	17.530	-801.60156	15.39112	-639.41766	771.22131	19.73658	-632.42432	-718.40485	-1.06543	498.39557	698.84662	2.15616	584.65271	-18.24697	757.33875	-947.93579	
1755	17.540	-801.64258	14.92504	-639.59167	771.09900	19.23255	-632.59668	-718.40649	-0.77806	498.29230	698.75702	2.51302	584.54724	-18.19851	756.37433	-948.92316	
1756	17.550	-801.68494	14.57947	-639.73547	770.96875	18.81070	-632.83405	-718.46851	-0.52307	498.17520	698.66382	2.96665	584.45880	-18.28094	755.76733	-949.41327	
1757	17.560	-801.68256	13.87543	-639.68597	771.01416	18.33320	-632.85382	-718.59631	-0.20303	498.06808	698.69086	3.29656	584.37103	-18.48431	755.28491	-949.92841	
1758	17.570	-801.80835	13.72662	-639.97919	771.00470	17.88478	-632.96051	-718.76715	0.12334	497.94867	698.64703	3.66463	584.21167	-18.39453	754.56958	-950.39368	
1759	17.580	-801.89819	13.15632	-640.06610	771.09344	17.61657	-633.00342	-718.77136	0.44481	497.81555	698.55609	4.01273	584.12109	-18.38881	753.71790	-950.92413	
1760	17.590	-801.86383	12.64839	-640.11853	771.08142	17.22103	-633.18518	-718.77429	0.66474	497.77267	698.49188	4.46538	584.10498	-18.60190	753.34656	-951.48914	
1761	17.600	-801.95398	12.25493	-640.18311	770.87738	16.70243	-633.41833	-718.77393	0.97653	497.68750	698.48816	4.82108	584.04144	-18.66127	752.96442	-951.89471	
1762	17.610	-802.04816	11.96461	-640.28381	770.58789	16.16039	-633.67334	-718.81250	1.22116	497.54965	698.39520	5.06946	583.92462	-19.00310	752.20337	-952.16980	
1763	17.620	-802.08264	11.53775	-640.45447	770.51318	16.00852	-633.68793	-718.97284	1.47585	497.46002	698.26544	5.28540	583.77368	-19.24544	751.61627	-952.69525	
1764	17.630	-802.17194	11.31379	-640.55573	770.58966	15.73085	-633.56763	-719.11224	1.74261	497.37122	698.21381	5.55981	583.67719	-19.06542	751.27533	-953.03088	
1765	17.640	-802.44177	11.10032	-640.56067	770.65540	15.25676	-633.56665	-719.22437	2.03494	497.32071	698.16809	5.79824	583.63177	-18.75618	750.80017	-953.55231	
1766	17.650	-802.47754	10.77991	-640.58490	770.59784	15.05338	-633.66669	-719.26965	2.20377	497.27521	698.17206	6.15224	583.57391	-18.76901	750.16235	-954.03479	
1767	17.660	-801.90344	9.67384	-640.90881	770.41046	14.76533	-633.89600	-719.38092	2.39522	497.20096	698.12585	6.44036	583.47137	-18.96494	749.67609	-954.46643	
1768	17.670	-802.08984	9.43563	-640.76892	770.36023	14.37905	-633.94305	-719.51373	2.57706	497.16412	698.03387	6.61169	583.41284	-19.23363	749.25568	-954.98212	
1769	17.680	-802.13147	9.18230	-640.91083	770.20093	14.03079	-633.98975	-719.37799	2.58926	497.16647	697.83844	6.93723	583.35431	-19.49844	748.78894	-955.46625	
1770	17.690	-802.27295	8.96077	-641.01434	770.15826	13.77812	-634.02234	-719.45386	2.82017	497.14499	697.73376	7.20185	583.27063	-19.37916	748.40558	-956.02997	
1771	17.700	-802.36072	8.67506	-641.13507	769.98303	13.42239	-634.07825	-719.55157	3.09928	497.10065	697.66400	7.49009	583.18073	-19.28033	747.84790	-956.50269	
1772	17.710	-802.37695	8.42472	-641.22028	769.84619	13.09122	-634.15253	-719.67572	3.41067	497.05591	697.61035	7.77242	583.08691	-19.42434	747.41553	-956.87891	
1773	17.720	-802.52667	8.01997	-641.17987	769.73645	12.83867	-634.19611	-719.54724	3.52511	497.00391	697.66083	7.92358	583.02911	-19.30760	747.05389	-957.14227	
1774	17.730	-802.63898	7.66116	-641.20477	769.69232	12.49322	-634.26245	-719.66772	3.71611	496.93121	697.59253	8.04507	583.00995	-19.48501	746.78778	-957.39355	
1775	17.740	-802.71411	7.54349	-641.33923	769.53906	12.25060	-634.30902	-719.80725	3.87994	496.89935	697.53381	8.28867	582.95575	-19.61039	746.41876	-957.84192	
1776	17.750	-802.73267	7.32121	-641.34186	769.50543	12.08531	-634.28400	-719.98254	4.16868	496.83624	697.48901	8.46523	582.89941	-19.84566	746.04230	-958.14148	
1777	17.760	-802.91699	7.31278	-641.28546	769.42358	11.94754	-634.33313	-720.17377	4.29004	496.57956	697.44110	8.61393	582.83087	-19.93541	745.74048	-958.52325	
1778	17.770	-803.06158	7.19994	-641.37018	769.42694	11.83714	-634.33905	-720.28192	4.38813	496.51868	697.25818	8.79156	582.80957	-20.08094	745.59644	-958.85199	
1779	17.780	-803.24072	7.12172	-641.42896	769.35175	11.65329	-634.46442	-720.33752	4.47625	496.62604	697.19720	8.87303	582.77612	-20.19872	745.48029	-958.98187	
1780	17.790	-803.36420	7.01298	-641.46472	769.36932	11.51088	-634.53156	-720.35632	4.62050	496.57904	697.07080	8.92096	582.77747	-20.23859	745.33844	-959.06708	
1781	17.800	-803.48047	6.97353	-641.52051	769.36963	11.39081	-634.54388	-720.48645	4.70477	496.54703	696.98907	9.03782	582.72791	-20.28524	745.04712	-959.17114	
1782	17.810	-803.42474	6.68718	-641.62579	769.33466	11.23746	-634.55164	-720.56989	4.90284	496.26099	696.91333	9.18494	582.70227	-20.42458	744.65924	-959.21295	
1783	17.820	-803.70154	6.79961	-641.66107	769.32080	10.93964	-634.60132	-720.56610	5.04442	496.26859	696.82690	9.33620	582.63263	-20.25834	744.19812	-959.37274	
1784	17.830	-803.77783	6.40128	-641.73163	769.20563	10.68012	-634.68994	-720.71674	5.14411	496.23615	696.71832	9.52344	582.58234	-20.33811	743.76917	-959.52557	
1785	17.840	-803.70520	5.88936	-641.74158	769.11810	10.41736	-634.72937	-720.77570	5.20978	496.16617	696.66895	9.63681	582.52191	-20.33379	743.48895	-959.72418	
1786	17.850	-803.68768	5.58323	-641.74347	769.00256	10.26359	-634.76117	-720.77307	5.33682	496.11456	696.57141	9.82613	582.49652	-20.38772	743.26398	-960.01453	
1787	17.860	-803.74286	5.43348	-641.69519	768.97601	10.15056	-634.77203	-720.81342	5.42094	496.08826	696.54907	9.95903	582.47693	-20.45887	743.09851	-960.33380	
1788	17.870	-803.79950	5.32176	-641.73291	768.85651	10.05278	-634.83185	-720.84625	5.48209	496.06757	696.42535	10.03877	582.46570	-20.49334	743.02649	-960.60376	
1789	17.880	-803.83380	5.21218	-641.76123	768.82288	10.02381	-634.86487	-720.80054	5.53706	496.03268	696.41504	10.15362	582.45251	-20.64746	742.91779	-960.99829	
1790	17.890	-803.94720	5.21638	-641.82001	768.75861	9.93076	-634.85449	-720.98364	5.53051	496.05292	696.31604	10.11055	582.40741	-20.83215	743.00122	-961.51343	
1791	17.900	-803.99414	5.14389	-641.80219	768.70239	9.83331	-634.84021	-721.10120	5.53953	496.03519	696.32550	10.11815	582.41803	-20.83761	743.00922	-961.69684	
1792	17.910	-804.02338	5.12060	-641.79651	768.64612	9.81146	-634.87360	-721.17651	5.55674	496.05368	696.24377	10.13707	582.45386	-20.90681	742.98615	-961.72400	
1793	17.920	-804.05151	5.03387	-641.80884	768.54004	9.83975	-634.89349	-721.19336	5.55562	496.08685	696.14343	10.14022	582.46289	-20.97414	742.99426	-961.73596	
1794	17.930	-804.22235	5.10473	-641.87134	768.39099	9.83301	-634.96338	-721.31250	5.58749	496.06747	696.05634	10.18291	582.47064	-21.10839	742.95300	-961.63403	
1795	17.940	-804.30310	5.15507	-641.83337	768.39191	9.78376	-634.90204	-721.40314	5.56046	496.07455	695.98242	10.17304	582.42773	-21.26395	742.90210	-961.37115	
1796	17.950	-804.39270	5.12616	-641.80280	768.41547	9.75340	-634.86938	-721.41992	5.59541	496.05258	695.89734	10.17760	582.45514	-21.24725	742.85120	-961.13531	
1797	17.960	-804.36078	5.02927	-641.81390	768.24707	9.72789	-634.97992	-721.48993	5.57582	496.04135	695.85443	10.18938	582.44763	-21.24410	742.84607	-960.82819	
1798	17.970	-804.27362	4.89245	-641.83600	768.17609	9.71295	-634.97766	-721.53192	5.57950	496.00644	695.76007	10.21787	582.46149	-21.04361	742.78680	-960.58063	
1799	17.980	-804.33191	4.88969	-641.83795	768.15332	9.70671	-634.97687	-721.54773	5.59678	496.02869	695.77087	10.25854	582.43341	-21.02331	742.73566	-960.41199	
1800	17.990	-804.44116	5.01608	-641.86761	768.09235	9.70390	-635.02686	-721.58862	5.65993	495.98627	695.74518	10.28018	582.36108	-21.05855	742.70526	-960.39484	
1801	18.000	-804.61066	5.69325	-641.98120	768.03058	9.77068	-635.07928	-721.60858	5.66713	495.98590	695.72174	10.24949	582.33997	-21.25613	742.53876	-960.43237	
1802	18.010	-804.54333	5.26307	-641.93433	767.98981	9.66926	-635.04041	-721.68634	5.73888	495.99872	695.53107	10.37169	582.33893	-21.52020	742.40662	-960.50110	
1803	18.020	-804.51129	4.73770	-641.96344	768.09583	9.37401	-634.88086	-721.68683	5.80170	495.97726	695.49829	10.42297	582.30402	-21.62328	742.56171	-960.85217	
1804	18.030	-804.68970	4.80400	-641.97498	767.90405	9.55744	-635.00385	-721.74854	5.68434	496.02850	695.39502	10.37451	582.34149	-21.63740	742.51923	-961.09082	
1805	18.040	-804.70398	4.98979	-641.93604	767.86316	9.69450	-635.04266	-721.77393	5.60923	496.01248	695.40649	10.31548	582.34888	-21.80737	742.37115	-961.44025	
1806	18.050	-804.81805	5.28776	-641.84650	767.85620	9.67994	-635.01141	-721.80231	5.62173	496.02515	695.37512	10.13540	582.35327	-21.75514	742.52057	-961.78888	
1807	18.060	-804.75568	5.36640	-641.84155	767.84790	9.64900	-634.99963	-721.75928	5.65021	496.05884	695.41797	10.15932	582.37939	-21.61301	742.76746	-961.99615	
1808	18.070	-804.79633	5.48201	-641.81335	767.96350	9.79087	-634.87732	-721.71234	5.55897	496.04218	695.41821	10.28068	582.40497	-21.52256	742.85547	-962.15112	
1809	18.080	-804.79663	5.29051	-641.82037	767.77130	9.89746	-634.98981	-721.77875	5.61597	496.06207	695.37042	10.21850	582.39740	-21.55750	742.75232	-962.07605	
1810	18.090	-804.84454	5.13732	-641.81598	767.82080	9.75609	-635.01801	-721.85052	5.53034	496.04407	695.32086	10.04844	582.39648	-21.60137	742.83081	-962.01813	
1811	18.100	-804.96436	5.48752	-641.75421	767.77026	9.73921	-634.99652	-721.88977	5.51082	496.06586	695.31232	10.02753	582.42285	-21.66805	742.82568	-961.85309	
1812	18.110	-805.00616	5.80447	-641.84845	767.79572	9.82838	-634.95038	-721.81378	5.46292	496.05334	695.32660	10.05769	582.44098	-21.67714	742.93726	-961.39050	
1813	18.120	-804.98920	5.78697	-641.79297	767.70575	9.95156	-634.93286	-721.80249	5.58101	496.10028	695.36011	10.10033	582.44971	-21.77776	743.05298	-961.06677	
1814	18.130	-804.94958	5.47502	-641.77362	767.69897	9.93823	-634.94257	-721.82434	5.48669	496.11154	695.29401	10.15993	582.43622	-21.78373	743.11487	-960.93726	
1815	18.140	-805.04132	5.51167	-641.79095	767.54572	9.95901	-635.00024	-721.87646	5.45055	496.09326	695.25201	10.00842	582.46570	-21.74754	743.18646	-960.46594	
1816	18.150	-805.17535	5.77620	-641.72839	767.57025	9.99462	-634.99957	-721.89789	5.41864	496.06882	695.22040	9.88482	582.46863	-21.53614	743.16449	-960.06439	
1817	18.160	-805.17352	5.99375	-641.75995	767.53687	10.09412	-634.87421	-721.91541	5.38477	496.08102	695.18933	9.91045	582.52142	-21.42417	743.27838	-959.79803	
1818	18.170	-805.10022	6.06669	-641.76416	767.58917	10.16194	-634.84497	-721.89478	5.40089	496.08560	695.26147	9.93776	582.55231	-21.38254	743.34106	-959.74170	
